<svg width="1440" height="507" viewBox="0 0 1440 507" fill="none" xmlns="http://www.w3.org/2000/svg">
<path d="M745 0L745 9.5L745 19" stroke="url(#paint0_linear_8_6)" stroke-width="3"/>
<line x1="752" y1="5.5" x2="738" y2="5.5" stroke="url(#paint1_linear_8_6)" stroke-width="3"/>
<path d="M1304.16 310.458C1357.87 279.697 1419.06 336.607 1440 349.424V507L679.5 484.5L679.5 466L679.5 424.5L679.5 400L679.5 380.5L692.887 330.155C692.887 330.155 709.029 56.5714 726.356 31.8528C743.682 7.13422 754.511 20.8667 765.341 31.8528C776.17 42.8389 782.44 52.6839 782.44 52.6839C792.186 67.7897 903.417 157.164 914.254 163.158C924.316 168.725 967.721 205.079 1001.29 185.853C1034.86 166.627 1066.19 191.848 1066.19 191.848C1082.41 195.78 1237.02 348.909 1304.16 310.458Z" fill="url(#paint2_linear_8_6)"/>
<line x1="324.108" y1="206.512" x2="618.108" y2="271.512" stroke="url(#paint3_linear_8_6)"/>
<path d="M107.5 393.139C73.1425 411.787 55.8772 352.665 0 377.639V515.605L1506 533.64C1404.87 471.77 1570.66 483.897 1415.5 410.64C1308.27 360.013 1268.87 321.649 1219 305C1118.7 271.518 926.5 416.815 901 410.64C855 399.5 689.994 267.025 645 257C567.717 239.781 578.565 385.332 516.5 410.64C438.918 442.274 434.404 290.242 330.5 202C226.596 113.758 150.447 369.83 107.5 393.139Z" fill="url(#paint4_linear_8_6)"/>
<path d="M436.703 238.847C437.507 235.066 441.224 232.652 445.005 233.455L468.481 238.445C472.262 239.249 474.676 242.966 473.872 246.748L472.625 252.617C471.821 256.398 468.104 258.812 464.323 258.008L440.847 253.018C437.066 252.215 434.652 248.497 435.455 244.716L436.703 238.847Z" fill="url(#paint5_linear_8_6)"/>
<defs>
<linearGradient id="paint0_linear_8_6" x1="760" y1="9.99999" x2="759" y2="9.99999" gradientUnits="userSpaceOnUse">
<stop stop-color="#9E8CD9"/>
<stop offset="1" stop-color="#59449C"/>
</linearGradient>
<linearGradient id="paint1_linear_8_6" x1="745" y1="4" x2="745" y2="3" gradientUnits="userSpaceOnUse">
<stop stop-color="#59449C"/>
<stop offset="1" stop-color="#9E8CD9"/>
</linearGradient>
<linearGradient id="paint2_linear_8_6" x1="715.526" y1="17.595" x2="715.526" y2="507" gradientUnits="userSpaceOnUse">
<stop stop-color="#403A91"/>
<stop offset="1" stop-color="#C470CA"/>
</linearGradient>
<linearGradient id="paint3_linear_8_6" x1="471" y1="239.5" x2="470.784" y2="240.476" gradientUnits="userSpaceOnUse">
<stop stop-color="#9E8CD9"/>
<stop offset="1" stop-color="#9E8CD9"/>
</linearGradient>
<linearGradient id="paint4_linear_8_6" x1="757.805" y1="-97.3608" x2="757.805" y2="415.708" gradientUnits="userSpaceOnUse">
<stop stop-color="#F5F5F5"/>
<stop offset="1" stop-color="#3913B8"/>
</linearGradient>
<linearGradient id="paint5_linear_8_6" x1="456.743" y1="235.95" x2="452.585" y2="255.513" gradientUnits="userSpaceOnUse">
<stop stop-color="#9E8CD9"/>
<stop offset="1" stop-color="#624F9F" stop-opacity="0.932292"/>
</linearGradient>
</defs>
</svg>
